# Blender 4.5.2 LTS
# www.blender.org
mtllib arm1.mtl
o arm1
v 0.003333 -0.152956 0.332335
v -0.006675 -0.168835 0.335794
v -0.007044 -0.080538 0.278313
v 0.000812 0.000402 0.228598
v -0.006448 0.114463 0.196237
v 0.002007 0.045549 0.192498
v -0.002750 0.034467 0.200658
v 0.005073 -0.144943 0.348672
v -0.000762 -0.044984 0.263558
v 0.001075 -0.159559 0.345154
v -0.000891 -0.065595 0.322775
v -0.007496 0.020017 0.193197
v 0.003075 0.128660 0.190390
v -0.006225 -0.154154 0.349899
v 0.012239 -0.071371 0.289693
v -0.000457 0.048578 0.250514
v -0.001280 -0.038310 0.310712
v 0.000105 0.017288 0.277411
v 0.011002 -0.015207 0.302716
v 0.009333 0.041010 0.187233
v 0.011880 -0.131070 0.322878
v 0.019104 -0.091500 0.337828
v 0.011107 0.125799 0.192729
v 0.024452 -0.046149 0.285903
v 0.015618 -0.134307 0.341194
v 0.012937 -0.060041 0.325656
v 0.014264 0.060361 0.190716
v 0.018537 0.016929 0.282813
v 0.021196 0.063890 0.199480
v 0.037834 0.058958 0.221905
v 0.018002 0.058837 0.185306
v 0.033166 -0.091016 0.325410
v 0.024571 0.127075 0.191269
v 0.031307 -0.012852 0.303756
v 0.034023 -0.074781 0.315250
v 0.023181 0.140012 0.186407
v 0.030160 -0.086493 0.334491
v 0.034682 -0.086322 0.329483
v 0.029018 -0.057069 0.324926
v 0.036843 0.036947 0.266943
v 0.043016 -0.027551 0.289960
v 0.042742 0.085028 0.202575
v 0.041719 0.124014 0.184530
v 0.034472 0.072858 0.234400
v 0.042194 0.113008 0.187671
v 0.039761 0.086899 0.192131
v 0.037147 0.106042 0.205370
v 0.041565 0.088243 0.186126
v 0.043774 0.133030 0.182136
v 0.049257 0.003801 0.270626
v 0.043711 -0.052959 0.311665
v 0.049327 0.039759 0.245969
v 0.044553 0.072198 0.228355
v 0.042978 -0.027933 0.308986
v 0.045921 -0.045065 0.312198
v 0.043798 0.081145 0.181748
v 0.043403 0.099885 0.203976
v 0.051114 0.042774 0.256444
v 0.056218 0.019383 0.272927
v 0.045031 0.100454 0.186637
v 0.056360 0.004464 0.275046
v 0.046643 0.081603 0.213851
v 0.052649 0.038764 0.248062
v 0.048746 0.063701 0.228144
v 0.051713 0.098683 0.180087
v 0.055276 0.042086 0.251065
v 0.055504 -0.007114 0.287672
v -0.022833 0.004720 0.205743
v -0.003366 -0.145742 0.315668
v -0.014452 0.129060 0.187896
v 0.000133 -0.110903 0.296930
v -0.010952 -0.169496 0.349576
v -0.001569 -0.119255 0.342498
v -0.017363 -0.007399 0.283131
v -0.009237 -0.103031 0.285957
v -0.016679 -0.048691 0.255410
v -0.026038 -0.043574 0.297560
v -0.014672 -0.135407 0.303053
v -0.019753 0.088500 0.207834
v -0.020815 -0.167244 0.318186
v -0.019336 0.007790 0.199948
v -0.019271 -0.091147 0.323806
v -0.020547 -0.182696 0.342445
v -0.023675 -0.006230 0.197649
v -0.026344 -0.148873 0.341161
v -0.029794 -0.100516 0.282834
v -0.045387 0.049625 0.216070
v -0.023020 -0.072463 0.268536
v -0.027696 0.101479 0.192408
v -0.021666 -0.173541 0.347883
v -0.036087 0.068769 0.211092
v -0.035113 0.103744 0.188057
v -0.027838 -0.131014 0.299280
v -0.025629 -0.183448 0.344189
v -0.027857 -0.052669 0.253984
v -0.028822 -0.182013 0.327355
v -0.030377 0.020665 0.249575
v -0.038502 -0.021893 0.273699
v -0.029749 -0.005916 0.200088
v -0.037981 -0.005434 0.206253
v -0.034950 -0.179864 0.340275
v -0.039280 -0.062683 0.261506
v -0.035436 -0.169461 0.317011
v -0.039107 -0.081990 0.275200
v -0.040066 -0.106457 0.315440
v -0.032865 -0.187318 0.335169
v -0.042342 -0.124281 0.297542
v -0.043132 -0.164746 0.333105
v -0.036383 -0.012865 0.199035
v -0.052147 0.039219 0.218883
v -0.054136 0.014592 0.233751
v -0.039954 -0.181880 0.326741
v -0.042138 -0.161704 0.315952
v -0.056721 -0.009825 0.196737
v -0.048009 -0.063644 0.287914
v -0.046365 0.072256 0.195408
v -0.048902 -0.053481 0.254319
v -0.048861 -0.157883 0.319639
v -0.049195 -0.004311 0.205387
v -0.048273 -0.092876 0.299376
v -0.049041 -0.070642 0.271713
v -0.047239 -0.125653 0.314403
v -0.053993 -0.003238 0.198222
v -0.047611 -0.120802 0.300725
v -0.050827 0.081276 0.187722
v -0.049502 -0.109374 0.302499
v -0.049465 -0.092546 0.287569
v -0.049183 -0.131730 0.310442
v -0.053817 -0.019048 0.255518
v -0.055504 0.055408 0.194704
v -0.057441 0.000501 0.206439
v -0.058145 -0.026774 0.230911
v -0.052901 -0.062961 0.271296
v -0.052784 -0.063338 0.277084
v -0.058580 0.031994 0.214013
v -0.055079 -0.038678 0.262365
v -0.061641 0.006753 0.229164
v -0.061807 0.041630 0.193891
v -0.063319 0.015926 0.216639
v -0.060388 0.005395 0.199470
v -0.061298 -0.015198 0.242152
v -0.060528 -0.029265 0.242059
v -0.064191 -0.008083 0.223391
v -0.065180 0.001352 0.222418
v -0.063627 0.018629 0.202545
v -0.066693 -0.001681 0.193416
v -0.068556 0.026202 0.190465
v -0.066649 0.011655 0.194393
vn -0.3938 -0.4212 -0.8170
vn -0.0267 -0.4464 -0.8944
vn -0.0027 -0.4565 -0.8897
vn 0.3376 -0.3950 -0.8544
vn -0.8822 -0.2378 -0.4065
vn -0.9542 -0.1997 -0.2229
vn -0.9644 -0.2094 -0.1613
vn -0.9992 0.0374 0.0118
vn -0.1647 -0.4761 -0.8638
vn 0.4307 -0.4057 -0.8062
vn 0.6396 -0.3762 -0.6703
vn 0.6114 -0.3911 -0.6879
vn 0.1313 -0.5295 -0.8381
vn -0.0826 -0.6472 -0.7578
vn 0.1993 -0.6270 -0.7531
vn 0.3964 -0.5401 -0.7424
vn 0.2088 -0.9707 -0.1187
vn 0.6086 -0.4496 -0.6539
vn 0.5320 -0.4753 -0.7008
vn -0.4551 -0.4022 -0.7944
vn 0.2832 -0.4642 -0.8393
vn -0.1194 -0.5029 -0.8561
vn -0.2302 -0.9707 0.0696
vn 0.5096 -0.8355 0.2055
vn -0.0930 -0.6806 0.7268
vn 0.3058 -0.7524 -0.5834
vn 0.7801 -0.5182 0.3505
vn 0.3270 -0.4085 0.8522
vn 0.7094 -0.6583 -0.2518
vn -0.6335 -0.7071 -0.3141
vn 0.3847 -0.5593 -0.7343
vn 0.5943 -0.4831 -0.6430
vn -0.8862 0.1889 0.4230
vn -0.9802 0.0322 0.1953
vn -0.6736 0.2795 0.6842
vn -0.9104 0.1466 0.3869
vn -0.7783 0.2692 0.5673
vn -0.8064 -0.0221 0.5910
vn -0.4779 0.2282 0.8483
vn -0.4800 0.3294 0.8131
vn -0.2474 0.2695 0.9307
vn -0.3850 0.3464 0.8554
vn -0.6752 -0.2671 0.6876
vn -0.2842 -0.0874 0.9548
vn -0.0938 0.0891 0.9916
vn 0.4000 -0.0782 0.9132
vn 0.0012 0.2581 0.9661
vn 0.7900 -0.5230 -0.3198
vn 0.8888 -0.3340 0.3137
vn 0.7836 -0.4288 -0.4495
vn -0.5325 -0.6444 0.5488
vn 0.0335 -0.6926 0.7205
vn 0.4795 -0.4109 0.7754
vn -0.5582 -0.4937 -0.6669
vn -0.3786 -0.6839 -0.6237
vn -0.9342 -0.2853 -0.2141
vn -0.6128 -0.5867 -0.5294
vn -0.9138 0.1450 0.3793
vn -0.9759 0.0212 0.2171
vn -0.7503 0.3249 0.5757
vn -0.9619 -0.2706 -0.0400
vn -0.9253 0.1393 0.3527
vn -0.5615 0.3805 0.7348
vn -0.8492 0.2904 0.4410
vn -0.6881 0.4227 0.5898
vn -0.6357 0.4080 0.6553
vn -0.2554 -0.8884 -0.3815
vn -0.9584 -0.2099 -0.1932
vn 0.5980 -0.6939 -0.4011
vn 0.8952 -0.3733 -0.2432
vn 0.8930 -0.3573 -0.2737
vn 0.9151 -0.1564 0.3717
vn 0.6934 -0.3981 -0.6006
vn 0.5846 -0.4970 -0.6413
vn -0.3875 0.4135 0.8239
vn -0.1811 0.3736 0.9098
vn -0.5175 0.4714 0.7142
vn 0.0958 0.5126 0.8533
vn 0.1635 0.3634 0.9172
vn 0.4501 0.3672 0.8140
vn 0.4934 0.1138 0.8623
vn 0.8962 -0.0065 0.4436
vn -0.2340 0.4915 0.8389
vn 0.5730 -0.4999 -0.6495
vn 0.8806 -0.2988 -0.3677
vn -0.4566 0.4187 0.7850
vn -0.5285 0.3655 0.7662
vn -0.6352 0.4168 0.6503
vn -0.4020 0.3049 0.8634
vn -0.8127 -0.0928 0.5752
vn -0.8842 0.2926 0.3641
vn -0.6499 0.1175 0.7508
vn -0.4869 -0.1922 0.8520
vn -0.7981 -0.3397 0.4976
vn -0.9853 0.0359 0.1673
vn -0.8702 0.3461 0.3506
vn -0.9336 0.2699 0.2356
vn -0.9964 -0.0441 0.0730
vn -0.7858 -0.5514 -0.2803
vn -0.5018 0.5264 0.6863
vn -0.5876 0.5147 0.6243
vn -0.6860 0.4794 0.5474
vn -0.7804 0.4053 0.4762
vn -0.6184 0.5068 0.6006
vn -0.5581 0.4994 0.6627
vn 0.6087 -0.4950 0.6200
vn 0.5149 -0.3244 0.7935
vn 0.7823 -0.3625 0.5066
vn 0.9072 -0.0185 0.4202
vn 0.8250 -0.5544 -0.1099
vn 0.7501 0.3299 0.5732
vn 0.9969 0.0789 -0.0026
vn 0.6895 -0.0662 0.7213
vn 0.8108 -0.5014 0.3018
vn 0.5084 -0.1608 0.8460
vn 0.6358 -0.2240 0.7386
vn 0.7443 -0.6459 0.1697
vn 0.7335 -0.5230 -0.4341
vn 0.6695 -0.5993 -0.4389
vn 0.7506 -0.4711 0.4633
vn 0.5450 -0.5389 -0.6423
vn 0.7280 -0.5394 -0.4231
vn 0.4703 -0.5120 -0.7188
vn 0.2549 0.4898 0.8337
vn 0.3516 0.2600 0.8993
vn 0.1968 0.3553 0.9138
vn -0.0693 0.5244 0.8486
vn -0.1040 0.4471 0.8884
vn 0.2612 0.1917 0.9461
vn 0.4794 0.6286 0.6124
vn 0.2557 0.6422 0.7226
vn -0.0961 0.5962 0.7971
vn -0.2931 0.4943 0.8184
vn -0.3887 0.5735 0.7211
vn 0.8376 0.4213 0.3476
vn 0.6673 0.5364 0.5167
vn 0.1165 0.6364 0.7625
vn 0.5032 0.6056 0.6164
vn 0.9808 0.1948 0.0098
vn 0.9850 0.0427 -0.1675
vn 0.4796 -0.5205 -0.7064
vn 0.6311 -0.4204 -0.6519
vn 0.8011 0.3579 0.4798
vn 0.9668 -0.0259 0.2542
vn -0.3685 0.5647 0.7385
vn 0.7294 0.1212 0.6733
vn -0.3598 -0.0609 0.9310
vn 0.4187 -0.2717 0.8665
vn -0.2532 0.3715 0.8932
vt 0.878471 0.252356
vt 0.863684 0.265118
vt 0.872217 0.242398
vt 0.851663 0.257169
vt 0.882324 0.253947
vt 0.875328 0.277194
vt 0.893610 0.226234
vt 0.885570 0.249387
vt 0.865374 0.281053
vt 0.843461 0.270418
vt 0.829441 0.266734
vt 0.847537 0.247041
vt 0.850995 0.282928
vt 0.857319 0.296443
vt 0.845799 0.301696
vt 0.837219 0.298623
vt 0.837904 0.345275
vt 0.812527 0.277595
vt 0.826735 0.293053
vt 0.889417 0.224439
vt 0.866430 0.234522
vt 0.887454 0.217080
vt 0.891182 0.200217
vt 0.880467 0.195296
vt 0.886480 0.194907
vt 0.888146 0.204995
vt 0.859049 0.199658
vt 0.868282 0.192948
vt 0.869599 0.203547
vt 0.893919 0.207993
vt 0.879022 0.215261
vt 0.862176 0.223346
vt 0.391553 0.971549
vt 0.384583 0.963767
vt 0.389092 0.962198
vt 0.397758 0.972579
vt 0.402461 0.963930
vt 0.407740 0.976578
vt 0.404480 0.981099
vt 0.417945 0.975053
vt 0.370381 0.953147
vt 0.368643 0.943209
vt 0.358814 0.941898
vt 0.382864 0.935354
vt 0.418214 0.955585
vt 0.407748 0.931529
vt 0.439190 0.953285
vt 0.362413 0.931445
vt 0.356935 0.929555
vt 0.362667 0.923517
vt 0.373587 0.919700
vt 0.366166 0.920831
vt 0.370216 0.923683
vt 0.386542 0.920825
vt 0.396776 0.917768
vt 0.431114 0.931317
vt 0.857559 0.209445
vt 0.843769 0.211464
vt 0.845642 0.223757
vt 0.825449 0.509447
vt 0.817550 0.515550
vt 0.824726 0.505491
vt 0.829218 0.505685
vt 0.866961 0.291668
vt 0.860364 0.305879
vt 0.868878 0.297228
vt 0.855806 0.331346
vt 0.869695 0.314952
vt 0.872259 0.295586
vt 0.879210 0.295879
vt 0.873187 0.329472
vt 0.862182 0.327229
vt 0.865646 0.336150
vt 0.878481 0.280348
vt 0.884879 0.288212
vt 0.888136 0.308314
vt 0.864813 0.346250
vt 0.872482 0.340472
vt 0.884520 0.322867
vt 0.842832 0.349230
vt 0.857301 0.345784
vt 0.827642 0.329372
vt 0.423152 0.972579
vt 0.817619 0.235986
vt 0.799099 0.256705
vt 0.807694 0.241840
vt 0.811921 0.247823
vt 0.793411 0.276389
vt 0.444552 0.978820
vt 0.456539 0.965248
vt 0.447988 0.946913
vt 0.466036 0.983678
vt 0.473127 0.953388
vt 0.455578 0.939473
vt 0.477172 0.941570
vt 0.438918 0.926413
vt 0.470801 0.935087
vt 0.469212 0.968660
vt 0.826493 0.224518
vt 0.851037 0.200505
vt 0.441727 0.923653
vt 0.467730 0.930726
vt 0.406508 0.915511
vt 0.815176 0.307447
vt 0.464921 0.994173
vt 0.462393 0.993243
vt 0.788532 0.271710
vt 0.790715 0.264953
vt 0.659046 0.552816
vt 0.677236 0.541969
vt 0.681370 0.549651
vt 0.657462 0.544672
vt 0.722144 0.551196
vt 0.702832 0.547920
vt 0.713123 0.546554
vt 0.728045 0.553029
vt 0.724998 0.556270
vt 0.717318 0.556154
vt 0.708220 0.560356
vt 0.717735 0.563577
vt 0.724142 0.569835
vt 0.726649 0.561067
vt 0.726751 0.566687
vt 0.721771 0.572804
vt 0.730063 0.560172
vt 0.731294 0.563826
vt 0.736564 0.568405
vt 0.667310 0.563138
vt 0.680495 0.561519
vt 0.703089 0.564117
vt 0.695644 0.548386
vt 0.693949 0.563094
vt 0.715460 0.575370
vt 0.705491 0.588101
vt 0.194187 0.640141
vt 0.211814 0.629725
vt 0.215679 0.632772
vt 0.223533 0.632339
vt 0.215308 0.637160
vt 0.231013 0.634878
vt 0.218279 0.650691
vt 0.222802 0.627117
vt 0.182704 0.648373
vt 0.182368 0.642957
vt 0.165684 0.650044
vt 0.195097 0.644229
vt 0.176525 0.654845
vt 0.202204 0.649064
vt 0.156645 0.657485
vt 0.207901 0.660764
vt 0.216402 0.644129
vt 0.207658 0.680599
vt 0.626125 0.573505
vt 0.617297 0.579552
vt 0.618993 0.567499
vt 0.631923 0.566228
vt 0.632343 0.558783
vt 0.624507 0.579823
vt 0.612431 0.577847
vt 0.233953 0.639051
vt 0.229271 0.644036
vt 0.232456 0.648698
vt 0.221707 0.665446
vt 0.232153 0.660838
vt 0.221459 0.711716
vt 0.232608 0.668140
vt 0.231378 0.685312
vt 0.224836 0.642506
vt 0.218375 0.660943
vt 0.218497 0.693959
vt 0.214379 0.685195
vt 0.211369 0.683115
vt 0.214403 0.663652
vt 0.169026 0.700795
vt 0.183908 0.720778
vt 0.197979 0.706594
vt 0.209187 0.682520
vt 0.207886 0.702340
vt 0.210027 0.730097
vt 0.201014 0.708530
vt 0.198218 0.719197
vt 0.198786 0.733334
vt 0.219039 0.735048
vt 0.227958 0.712283
vt 0.225141 0.735300
vt 0.232409 0.727058
vt 0.238539 0.628468
vt 0.807742 0.520063
vt 0.813213 0.513245
vt 0.848619 0.351933
vt 0.861272 0.350222
vt 0.166794 0.677639
vt 0.154450 0.662553
vt 0.146541 0.666494
vt 0.145954 0.660543
vt 0.147680 0.656052
vt 0.723960 0.594078
vt 0.721866 0.594652
vt 0.715260 0.593321
vt 0.669093 0.584832
vt 0.645834 0.559286
vt 0.238134 0.704467
vt 0.239638 0.711955
vt 0.187718 0.732146
vt 0.638530 0.550737
s 1
usemtl tripo_mat_ec8745c3-bda8-4347-ad56-d02ff18cfc2e
f 107/1/1 86/2/2 93/3/3
f 75/4/4 93/3/3 86/2/2
f 107/1/1 124/5/5 127/6/6
f 124/5/5 107/1/1 118/7/7
f 128/8/8 124/5/5 118/7/7
f 86/2/2 107/1/1 104/9/9
f 86/2/2 3/10/10 75/4/4
f 75/4/4 3/10/10 15/11/11
f 75/4/4 15/11/11 71/12/12
f 3/10/10 86/2/2 88/13/13
f 86/2/2 104/9/9 88/13/13
f 88/13/13 102/14/14 95/15/15
f 95/15/15 76/16/16 88/13/13
f 76/16/16 95/15/15 100/17/17
f 76/16/16 3/10/10 88/13/13
f 15/11/11 3/10/10 24/18/18
f 9/19/19 3/10/10 76/16/16
f 9/19/19 24/18/18 3/10/10
f 107/1/1 93/3/3 113/20/20
f 118/7/7 107/1/1 113/20/20
f 78/21/21 103/22/22 93/3/3
f 93/3/3 103/22/22 113/20/20
f 106/23/23 83/24/24 94/25/25
f 83/24/24 106/23/23 96/26/26
f 10/27/27 72/28/28 83/24/24
f 83/24/24 2/29/29 10/27/27
f 2/29/29 83/24/24 96/26/26
f 112/30/30 118/7/7 113/20/20
f 113/20/20 103/22/22 112/30/30
f 112/30/30 96/26/26 106/23/23
f 96/26/26 112/30/30 103/22/22
f 103/22/22 78/21/21 80/31/31
f 96/26/26 103/22/22 80/31/31
f 80/31/31 69/32/32 2/29/29
f 124/33/5 128/34/8 122/35/33
f 126/36/34 124/33/5 122/35/33
f 126/36/34 122/35/33 105/37/35
f 120/38/36 126/36/34 105/37/35
f 120/38/36 127/39/6 126/36/34
f 120/38/36 105/37/35 115/40/37
f 128/34/8 118/41/7 122/35/33
f 122/35/33 118/41/7 108/42/38
f 108/42/38 118/41/7 112/43/30
f 122/35/33 108/42/38 105/37/35
f 105/37/35 108/42/38 85/44/39
f 105/37/35 85/44/39 82/45/40
f 82/45/40 85/44/39 73/46/41
f 82/45/40 73/46/41 11/47/42
f 112/43/30 101/48/43 108/42/38
f 112/43/30 106/49/23 101/48/43
f 101/48/43 106/49/23 94/50/25
f 72/51/28 94/50/25 83/52/24
f 94/50/25 72/51/28 90/53/44
f 72/51/28 14/54/45 90/53/44
f 14/54/45 72/51/28 8/55/46
f 8/55/46 22/56/47 73/46/41
f 73/46/41 14/54/45 8/55/46
f 96/26/26 80/31/31 2/29/29
f 2/29/29 69/32/32 1/57/48
f 25/58/49 1/57/48 21/59/50
f 21/59/50 1/57/48 69/32/32
f 21/59/50 69/32/32 71/12/12
f 78/21/21 69/32/32 80/31/31
f 101/48/43 94/50/25 90/53/44
f 108/42/38 101/48/43 85/44/39
f 14/54/45 73/46/41 85/44/39
f 90/53/44 85/44/39 101/48/43
f 90/53/44 14/54/45 85/44/39
f 100/60/17 123/61/51 109/62/52
f 100/60/17 109/62/52 99/63/53
f 102/14/14 121/64/54 117/65/55
f 117/65/55 121/64/54 133/66/56
f 132/67/57 117/65/55 133/66/56
f 136/68/58 134/69/59 115/70/37
f 115/70/37 129/71/60 136/68/58
f 134/69/59 136/68/58 142/72/61
f 136/68/58 129/71/60 141/73/62
f 133/66/56 121/64/54 127/6/6
f 120/74/36 115/70/37 134/69/59
f 115/70/37 105/75/35 77/76/63
f 137/77/64 141/73/62 111/78/65
f 111/78/65 129/71/60 98/79/66
f 111/78/65 141/73/62 129/71/60
f 104/9/9 121/64/54 102/14/14
f 104/9/9 102/14/14 88/13/13
f 119/80/67 100/17/17 102/14/14
f 117/65/55 119/80/67 102/14/14
f 143/81/68 142/72/61 141/73/62
f 142/72/61 132/67/57 134/69/59
f 95/15/15 102/14/14 100/17/17
f 100/17/17 68/82/69 76/16/16
f 132/67/57 133/66/56 134/69/59
f 136/68/58 141/73/62 142/72/61
f 77/76/63 98/79/66 115/70/37
f 115/70/37 98/79/66 129/71/60
f 127/39/6 124/33/5 126/36/34
f 82/45/40 77/83/63 105/37/35
f 93/3/3 75/4/4 78/21/21
f 71/12/12 78/21/21 75/4/4
f 32/84/70 51/85/71 38/86/72
f 35/87/73 15/11/11 24/18/18
f 41/88/74 35/87/73 24/18/18
f 51/85/71 32/84/70 35/87/73
f 107/1/1 127/6/6 121/64/54
f 104/9/9 107/1/1 121/64/54
f 127/6/6 120/74/36 134/69/59
f 127/6/6 134/69/59 133/66/56
f 77/89/63 11/47/42 17/90/75
f 26/91/76 11/47/42 22/56/47
f 11/47/42 26/91/76 17/90/75
f 74/92/77 77/89/63 17/90/75
f 34/93/78 26/91/76 39/94/79
f 54/95/80 39/94/79 37/96/81
f 54/95/80 37/96/81 55/97/82
f 11/47/42 77/89/63 82/45/40
f 19/98/83 26/91/76 34/93/78
f 17/90/75 26/91/76 19/98/83
f 78/21/21 71/12/12 69/32/32
f 71/12/12 15/11/11 21/59/50
f 21/59/50 15/11/11 35/87/73
f 32/84/70 38/99/72 25/58/49
f 25/58/49 21/59/50 32/84/70
f 21/59/50 35/87/73 32/84/70
f 8/100/46 72/28/28 10/27/27
f 2/29/29 1/57/48 10/27/27
f 1/57/48 25/58/49 10/27/27
f 25/58/49 8/100/46 10/27/27
f 73/46/41 22/56/47 11/47/42
f 26/91/76 22/56/47 39/94/79
f 37/96/81 38/101/72 55/97/82
f 55/97/82 38/101/72 51/102/71
f 37/96/81 39/94/79 22/56/47
f 37/96/81 22/56/47 8/55/46
f 8/55/46 25/103/49 37/96/81
f 25/103/49 38/101/72 37/96/81
f 68/82/69 4/104/84 76/16/16
f 24/18/18 9/19/19 4/104/84
f 76/16/16 4/104/84 9/19/19
f 77/89/63 74/105/77 98/106/66
f 51/85/71 35/87/73 41/88/74
f 51/85/71 61/107/85 55/108/82
f 51/85/71 41/88/74 61/107/85
f 34/93/78 39/94/79 54/95/80
f 89/109/86 125/110/87 116/111/88
f 125/110/87 89/109/86 92/112/89
f 148/113/90 138/114/91 147/115/92
f 148/113/90 146/116/93 140/117/94
f 138/114/91 148/113/90 145/118/95
f 145/118/95 135/119/96 138/114/91
f 135/119/96 145/118/95 139/120/97
f 139/120/97 145/118/95 144/121/98
f 145/118/95 148/113/90 140/117/94
f 145/118/95 140/117/94 131/122/99
f 145/118/95 131/122/99 144/121/98
f 144/121/98 131/122/99 143/123/68
f 139/120/97 144/121/98 137/124/64
f 131/122/99 123/125/51 119/126/67
f 119/126/67 123/125/51 100/127/17
f 79/128/100 89/109/86 116/111/88
f 79/128/100 116/111/88 91/129/101
f 138/114/91 110/130/102 130/131/103
f 130/131/103 87/132/104 116/111/88
f 87/132/104 130/131/103 110/130/102
f 110/130/102 138/114/91 135/119/96
f 110/130/102 111/133/65 97/134/105
f 111/133/65 110/130/102 135/119/96
f 116/111/88 125/110/87 130/131/103
f 31/135/106 56/136/107 48/137/108
f 48/137/108 56/136/107 60/138/109
f 48/137/108 60/138/109 46/139/110
f 60/138/109 45/140/111 62/141/112
f 60/138/109 56/136/107 65/142/113
f 6/143/114 20/144/115 31/135/106
f 20/144/115 6/143/114 12/145/116
f 27/146/117 6/143/114 31/135/106
f 7/147/118 6/143/114 29/148/119
f 81/149/120 12/145/116 6/143/114
f 29/148/119 6/143/114 27/146/117
f 29/148/119 30/150/121 7/147/118
f 30/150/121 29/148/119 42/151/122
f 42/151/122 52/152/123 30/150/121
f 42/151/122 46/139/110 60/138/109
f 42/151/122 29/148/119 46/139/110
f 29/148/119 27/146/117 46/139/110
f 31/135/106 46/139/110 27/146/117
f 46/139/110 31/135/106 48/137/108
f 33/153/124 43/154/125 36/155/126
f 33/153/124 36/155/126 23/156/127
f 23/156/127 36/155/126 13/157/128
f 43/154/125 33/153/124 45/158/111
f 43/154/125 49/159/129 36/155/126
f 45/140/111 33/160/124 47/161/130
f 33/162/124 44/163/131 47/161/130
f 23/164/127 28/165/132 33/162/124
f 28/165/132 23/164/127 5/166/133
f 5/166/133 16/167/134 28/165/132
f 33/162/124 28/165/132 44/163/131
f 47/161/130 57/168/135 45/140/111
f 47/161/130 44/163/131 53/169/136
f 47/161/130 53/169/136 57/168/135
f 57/168/135 62/141/112 45/140/111
f 62/141/112 57/168/135 53/169/136
f 28/165/132 40/170/137 44/163/131
f 58/171/138 44/163/131 40/170/137
f 58/171/138 66/172/139 53/169/136
f 58/171/138 53/169/136 44/163/131
f 66/172/139 64/173/140 53/169/136
f 53/169/136 64/173/140 62/141/112
f 24/174/18 30/150/121 41/175/74
f 30/150/121 52/152/123 50/176/141
f 41/175/74 30/150/121 50/176/141
f 52/152/123 64/173/140 63/177/142
f 63/177/142 64/173/140 66/172/139
f 66/172/139 58/171/138 59/178/143
f 59/178/143 58/171/138 40/170/137
f 40/170/137 34/179/78 59/178/143
f 66/172/139 59/178/143 61/180/85
f 59/178/143 67/181/144 61/180/85
f 54/182/80 67/181/144 59/178/143
f 54/182/80 59/178/143 34/179/78
f 19/183/83 18/184/145 17/185/75
f 74/186/77 17/185/75 18/184/145
f 18/184/145 19/183/83 28/165/132
f 19/183/83 34/179/78 28/165/132
f 49/187/146 45/140/111 60/138/109
f 146/188/93 114/189/147 123/61/51
f 123/125/51 131/122/99 140/117/94
f 132/67/57 131/190/99 119/80/67
f 119/80/67 117/65/55 132/67/57
f 132/67/57 143/81/68 131/190/99
f 144/191/98 143/81/68 137/77/64
f 141/73/62 137/77/64 143/81/68
f 143/81/68 132/67/57 142/72/61
f 140/117/94 146/116/93 123/125/51
f 137/124/64 111/133/65 139/120/97
f 135/119/96 139/120/97 111/133/65
f 4/192/84 7/147/118 30/150/121
f 68/193/69 7/147/118 4/192/84
f 81/149/120 7/147/118 68/193/69
f 7/147/118 81/149/120 6/143/114
f 30/150/121 24/174/18 4/192/84
f 100/194/17 99/195/53 81/149/120
f 100/194/17 81/149/120 68/193/69
f 81/149/120 99/195/53 84/196/148
f 81/149/120 84/196/148 12/145/116
f 98/197/66 74/198/77 111/133/65
f 97/134/105 111/133/65 74/199/77
f 110/130/102 97/134/105 87/132/104
f 91/129/101 16/200/134 79/128/100
f 79/128/100 16/200/134 5/201/133
f 87/202/104 97/203/105 18/184/145
f 18/184/145 97/203/105 74/186/77
f 40/170/137 28/165/132 34/179/78
f 16/167/134 18/184/145 28/165/132
f 18/184/145 16/167/134 87/202/104
f 41/175/74 50/176/141 61/180/85
f 54/182/80 55/204/82 67/181/144
f 61/180/85 67/181/144 55/204/82
f 116/111/88 87/132/104 91/129/101
f 79/128/100 5/201/133 89/109/86
f 92/112/89 89/109/86 5/201/133
f 70/205/149 92/112/89 5/201/133
f 70/205/149 5/201/133 13/157/128
f 13/157/128 5/201/133 23/156/127
f 91/129/101 87/132/104 16/200/134
f 62/141/112 64/173/140 42/151/122
f 52/152/123 42/151/122 64/173/140
f 62/141/112 42/151/122 60/138/109
f 49/187/146 60/138/109 65/142/113
f 61/180/85 50/176/141 63/177/142
f 63/177/142 50/176/141 52/152/123
f 61/180/85 63/177/142 66/172/139
