# Blender 4.5.2 LTS
# www.blender.org
mtllib CamelPataizqAtras.mtl
o camel-pata-izq-atras
v 0.311519 1.333626 -0.478481
v 0.067453 1.168622 -0.616223
v 0.326158 1.332692 -0.632290
v 0.188249 1.229427 -0.421127
v 0.156201 1.291404 -0.780104
v 0.105098 0.983860 -0.516693
v 0.202680 0.222417 -0.561038
v 0.135933 0.408983 -0.592616
v 0.231801 0.440821 -0.611628
v 0.192633 0.475322 -0.576476
v 0.126475 0.792650 -0.615329
v 0.253675 0.665760 -0.605974
v 0.171879 0.959813 -0.469879
v 0.201673 0.016949 -0.521794
v 0.247624 0.012427 -0.413140
v 0.215589 0.020158 -0.354002
v 0.168996 0.058988 -0.425798
v 0.115936 0.011774 -0.503595
v 0.174933 0.030844 -0.366275
v 0.170548 0.001358 -0.483031
v 0.148366 0.036368 -0.521278
v 0.162602 0.041695 -0.518113
v 0.079649 1.202642 -0.720468
v 0.102481 1.168597 -0.498314
v 0.335295 1.128444 -0.609775
v 0.267600 1.325531 -0.430416
v 0.267854 1.317349 -0.751297
v 0.123589 1.239896 -0.743595
v 0.278961 0.974889 -0.500748
v 0.159961 0.843968 -0.672828
v 0.225567 0.875867 -0.686226
v 0.149243 0.522750 -0.685202
v 0.175153 0.244796 -0.592838
v 0.175479 0.209918 -0.516396
v 0.157474 0.097680 -0.553928
v 0.125585 0.124166 -0.505200
v 0.190355 0.540310 -0.722431
v 0.179856 0.096836 -0.459698
v 0.207053 0.076691 -0.506594
v 0.170908 0.005849 -0.381645
v 0.204274 0.040272 -0.354407
v 0.168179 0.103030 -0.470113
v 0.199808 0.004929 -0.334429
v 0.206005 0.135960 -0.484949
v 0.141346 0.042687 -0.514013
v 0.144122 0.031612 -0.337423
v 0.143965 0.004136 -0.340095
v 0.101085 0.007434 -0.396713
v 0.133254 0.080516 -0.495783
v 0.170504 0.119359 -0.472091
v 0.110949 0.041416 -0.402538
v 0.154149 0.688118 -0.571735
vn 0.9009 -0.0558 0.4304
vn -0.9516 -0.2186 -0.2159
vn 0.9818 0.0231 -0.1885
vn 0.0675 -0.1739 0.9824
vn 0.0349 -0.2147 -0.9761
vn -0.8557 -0.1553 0.4937
vn 0.9763 -0.1089 -0.1869
vn -0.9311 0.0395 0.3627
vn 0.9898 -0.1054 0.0955
vn 0.2311 0.0068 0.9729
vn -0.9831 -0.0918 -0.1583
vn 0.9323 -0.1554 0.3266
vn -0.1698 -0.2536 0.9523
vn 0.4493 -0.4465 -0.7738
vn 0.9414 -0.3246 0.0916
vn 0.8111 0.1541 0.5642
vn -0.3981 0.8033 0.4430
vn -0.7102 -0.4770 -0.5178
vn -0.1310 0.5173 0.8457
vn 0.0413 -0.9845 -0.1705
vn -0.2674 -0.1107 -0.9572
vn -0.0225 0.0682 -0.9974
vn 0.5736 -0.7962 -0.1927
vn -0.7943 -0.0794 0.6023
vn 0.9821 -0.1174 -0.1476
vn 0.6198 -0.1350 0.7731
vn 0.6476 -0.1204 -0.7524
vn -0.4942 -0.3797 -0.7820
vn 0.6924 -0.2311 0.6835
vn -0.5803 -0.0388 -0.8135
vn 0.3919 -0.1255 -0.9114
vn -0.8259 -0.1186 -0.5513
vn 0.4336 -0.3136 -0.8448
vn 0.2015 0.3960 0.8959
vn -0.2125 -0.3926 -0.8948
vn -0.9672 0.0574 0.2475
vn 0.1707 -0.1346 -0.9761
vn 0.3243 0.6602 0.6775
vn 0.9120 0.0369 -0.4086
vn 0.0099 -0.9657 0.2593
vn 0.1989 0.7327 0.6508
vn -0.6245 0.4010 0.6702
vn 0.0013 -0.4428 0.8966
vn 0.7566 0.2404 0.6081
vn -0.4620 0.2983 -0.8352
vn -0.0311 0.4149 0.9093
vn 0.0244 -0.6019 0.7982
vn -0.8521 -0.4902 0.1835
vn -0.9775 0.2072 -0.0393
vn -0.2692 0.3875 0.8817
vn -0.7265 0.6526 0.2154
vn -0.3953 -0.1380 0.9081
vt 0.628620 0.466633
vt 0.681729 0.524081
vt 0.622308 0.481358
vt 0.712700 0.571737
vt 0.669981 0.578588
vt 0.640324 0.524806
vt 0.600260 0.530229
vt 0.595797 0.561637
vt 0.668337 0.595252
vt 0.754231 0.604349
vt 0.747393 0.614799
vt 0.779041 0.651982
vt 0.768304 0.654974
vt 0.721475 0.617495
vt 0.776039 0.603624
vt 0.740341 0.558424
vt 0.741811 0.539122
vt 0.718604 0.628846
vt 0.810799 0.659837
vt 0.801255 0.662237
vt 0.792977 0.646932
vt 0.717399 0.507667
vt 0.669778 0.611929
vt 0.785837 0.677000
vt 0.737340 0.646764
vt 0.814505 0.664269
vt 0.823043 0.688278
vt 0.801165 0.675722
vt 0.872525 0.362692
vt 0.869021 0.361485
vt 0.876880 0.349836
vt 0.861355 0.337202
vt 0.869597 0.330779
vt 0.833998 0.680296
vt 0.834993 0.686201
vt 0.851530 0.682837
vt 0.852222 0.678096
vt 0.855446 0.681331
vt 0.825532 0.666377
vt 0.863002 0.358117
vt 0.802276 0.690572
vt 0.793613 0.689573
vt 0.788935 0.692436
vt 0.785794 0.688257
vt 0.841034 0.654748
vt 0.845683 0.661611
vt 0.842203 0.665356
vt 0.835292 0.657888
vt 0.837750 0.675281
vt 0.842415 0.675998
vt 0.820181 0.650390
vt 0.792074 0.692749
vt 0.788170 0.699099
vt 0.845029 0.670091
vt 0.856309 0.362802
vt 0.831557 0.644869
vt 0.847661 0.354237
vt 0.850724 0.333949
vt 0.814236 0.660688
vt 0.665698 0.464858
vt 0.703112 0.517281
vt 0.609881 0.510076
vt 0.603428 0.591893
vt 0.590757 0.549951
vt 0.812502 0.647251
vt 0.842473 0.679694
vt 0.847284 0.680232
vt 0.731558 0.475620
vt 0.778303 0.682263
vt 0.594068 0.572725
vt 0.706736 0.468069
s 1
usemtl Bactria_camel_mat
f 26/1/26 29/2/29 1/3/1
f 12/4/12 31/5/31 25/6/25
f 25/6/25 31/5/31 27/7/27
f 28/8/28 31/5/31 30/9/30
f 10/10/10 9/11/9 12/4/12
f 7/12/7 33/13/33 37/14/37
f 8/15/8 52/16/52 11/17/11
f 37/14/37 33/13/33 32/18/32
f 50/19/50 44/20/44 34/21/34
f 10/10/10 34/21/34 9/11/9
f 8/15/8 10/10/10 52/16/52
f 11/17/11 52/16/52 6/22/6
f 52/16/52 10/10/10 12/4/12
f 32/18/32 11/23/11 30/9/30
f 35/24/35 8/25/8 32/18/32
f 38/26/38 15/27/15 39/28/39
f 16/29/16 43/30/43 15/31/15
f 20/32/20 14/33/14 15/31/15
f 41/34/41 16/35/16 15/27/15
f 43/36/43 41/37/41 19/38/19
f 17/39/17 41/34/41 38/26/38
f 40/40/40 20/32/20 43/30/43
f 15/31/15 43/30/43 20/32/20
f 39/28/39 14/41/14 22/42/22
f 44/20/44 39/28/39 7/12/7
f 34/21/34 44/20/44 7/12/7
f 50/19/50 38/26/38 44/20/44
f 22/42/22 45/43/45 49/44/49
f 48/45/48 47/46/47 46/47/46
f 46/47/46 17/39/17 51/48/51
f 19/49/19 46/47/46 40/50/40
f 49/51/49 51/48/51 17/39/17
f 21/52/21 18/53/18 45/43/45
f 14/41/14 21/52/21 22/42/22
f 51/48/51 48/45/48 46/47/46
f 47/54/47 40/50/40 46/47/46
f 20/32/20 40/40/40 47/55/47
f 18/56/18 51/48/51 49/51/49
f 48/57/48 18/58/18 20/32/20
f 42/59/42 17/39/17 38/26/38
f 29/2/29 4/60/4 13/61/13
f 9/11/9 7/12/7 37/14/37
f 1/3/1 29/2/29 25/6/25
f 3/62/3 25/6/25 27/7/27
f 25/6/25 3/62/3 1/3/1
f 30/9/30 2/63/2 28/8/28
f 52/16/52 29/2/29 13/61/13
f 5/64/5 27/7/27 31/5/31
f 12/4/12 37/14/37 31/5/31
f 29/2/29 12/4/12 25/6/25
f 31/5/31 37/14/37 30/9/30
f 6/22/6 52/16/52 13/61/13
f 7/12/7 9/11/9 34/21/34
f 34/21/34 8/15/8 36/65/36
f 37/14/37 32/18/32 30/9/30
f 35/24/35 32/18/32 33/13/33
f 35/24/35 7/12/7 39/28/39
f 12/4/12 9/11/9 37/14/37
f 32/18/32 8/25/8 11/23/11
f 10/10/10 8/15/8 34/21/34
f 22/42/22 35/24/35 39/28/39
f 41/34/41 17/39/17 19/49/19
f 19/49/19 40/50/40 43/66/43
f 41/37/41 43/36/43 16/67/16
f 15/27/15 38/26/38 41/34/41
f 15/27/15 14/41/14 39/28/39
f 6/22/6 2/68/2 11/17/11
f 36/65/36 50/19/50 34/21/34
f 39/28/39 44/20/44 38/26/38
f 18/58/18 14/33/14 20/32/20
f 49/44/49 36/69/36 35/24/35
f 42/59/42 50/19/50 49/51/49
f 22/42/22 49/44/49 35/24/35
f 14/41/14 18/53/18 21/52/21
f 17/39/17 46/47/46 19/49/19
f 18/56/18 48/45/48 51/48/51
f 20/32/20 47/55/47 48/57/48
f 49/44/49 45/43/45 18/53/18
f 36/65/36 49/51/49 50/19/50
f 17/39/17 42/59/42 49/51/49
f 35/24/35 36/69/36 8/25/8
f 28/8/28 2/63/2 23/70/23
f 28/8/28 5/64/5 31/5/31
f 13/61/13 24/71/24 6/22/6
f 29/2/29 26/1/26 4/60/4
f 30/9/30 11/23/11 2/63/2
f 52/16/52 12/4/12 29/2/29
f 35/24/35 33/13/33 7/12/7
f 6/22/6 24/71/24 2/68/2
f 13/61/13 4/60/4 24/71/24
