# Blender 4.5.2 LTS
# www.blender.org
mtllib CamelPataAtrasDer.mtl
o camel-pata-der-atrs
v -0.287407 1.331305 -0.440733
v -0.067376 1.166999 -0.610816
v -0.257485 1.302641 -0.410470
v -0.156055 1.291045 -0.781455
v -0.124597 1.242844 -0.739141
v -0.268082 0.878884 -0.536025
v -0.205173 0.208538 -0.547196
v -0.233958 0.534597 -0.654971
v -0.175428 0.857096 -0.685424
v -0.180642 0.474032 -0.574302
v -0.208951 0.933201 -0.479839
v -0.205341 0.097262 -0.473288
v -0.178496 0.054613 -0.515675
v -0.180251 0.020977 -0.368264
v -0.191190 0.046087 -0.356213
v -0.191046 0.002143 -0.356036
v -0.222884 0.014977 -0.512644
v -0.094440 0.012427 -0.413140
v -0.139692 0.005260 -0.337316
v -0.164829 0.034362 -0.372192
v -0.170062 0.043782 -0.405735
v -0.162783 0.118432 -0.463757
v -0.174901 0.173303 -0.572276
v -0.135079 0.072377 -0.503030
v -0.112176 1.172150 -0.482155
v -0.338802 1.113645 -0.590500
v -0.279729 1.320770 -0.741463
v -0.331617 1.334858 -0.554293
v -0.119816 0.958777 -0.495943
v -0.131922 0.521566 -0.650128
v -0.179894 0.538233 -0.721663
v -0.131223 0.735999 -0.601959
v -0.170821 0.068139 -0.448610
v -0.170040 0.006694 -0.376130
v -0.246430 0.010984 -0.397777
v -0.198600 0.005066 -0.327414
v -0.171010 0.104530 -0.470574
v -0.191486 0.038127 -0.353071
v -0.179849 0.006873 -0.517471
v -0.210250 0.103893 -0.534252
v -0.215018 0.037175 -0.357888
v -0.171635 0.020039 -0.376091
v -0.134889 0.067961 -0.437937
v -0.155889 0.033031 -0.349812
v -0.141887 0.044822 -0.358419
v -0.143939 0.038911 -0.347362
v -0.138767 0.004902 -0.522963
v -0.144150 0.156799 -0.496090
v -0.242202 0.877989 -0.673413
v -0.141209 0.248667 -0.569577
v -0.222194 0.439288 -0.594332
v -0.079698 1.204870 -0.717523
vn -0.8532 -0.1300 0.5052
vn 0.9510 -0.2310 -0.2054
vn -0.5893 -0.2232 0.7765
vn -0.0412 -0.2013 -0.9787
vn 0.6349 -0.3352 -0.6961
vn -0.7845 -0.2012 0.5865
vn -0.9935 0.0622 0.0954
vn -0.9237 -0.1522 -0.3516
vn 0.4008 -0.0727 -0.9133
vn -0.0359 -0.0055 0.9993
vn -0.1275 -0.2470 0.9606
vn -0.8255 0.4963 0.2686
vn -0.1946 -0.0231 -0.9806
vn 0.6406 -0.1116 0.7597
vn 0.2172 0.8112 0.5430
vn 0.2007 -0.8296 0.5210
vn -0.6734 -0.3721 -0.6388
vn 0.9368 -0.3261 0.1267
vn 0.1640 -0.4917 0.8552
vn -0.1322 0.7268 0.6740
vn 0.8716 -0.4195 -0.2538
vn 0.4070 0.5429 0.7346
vn -0.0276 -0.2873 -0.9575
vn 0.8728 0.1217 -0.4728
vn 0.6279 -0.1045 0.7712
vn -0.9921 -0.1233 -0.0234
vn -0.7184 -0.0915 -0.6896
vn -0.9961 0.0182 0.0862
vn 0.6743 -0.2056 0.7093
vn 0.9485 -0.0431 -0.3139
vn 0.0663 -0.1316 -0.9891
vn 0.9910 -0.0732 0.1117
vn 0.7728 0.4252 0.4711
vn -0.0679 -0.9453 0.3192
vn -0.8958 -0.3958 0.2021
vn -0.0336 -0.5074 0.8611
vn 0.0914 0.0723 0.9932
vn 0.2754 0.5517 0.7873
vn -0.1483 -0.6942 -0.7043
vn -0.7921 -0.3404 -0.5067
vn -0.6836 0.4222 0.5953
vn -0.4565 -0.2469 0.8548
vn 0.7086 0.6524 0.2689
vn -0.6823 0.3040 0.6649
vn 0.3521 0.8204 0.4505
vn 0.6576 0.2905 0.6951
vn 0.4139 -0.5513 -0.7244
vn 0.5707 0.3807 0.7276
vn -0.5254 -0.0815 -0.8470
vn 0.9634 -0.0752 -0.2574
vn -0.8975 -0.0870 0.4323
vn -0.5676 -0.7943 -0.2164
vt 0.418366 0.639792
vt 0.377330 0.598729
vt 0.422421 0.549874
vt 0.458546 0.560735
vt 0.487100 0.573457
vt 0.456824 0.596365
vt 0.472674 0.654225
vt 0.455663 0.719891
vt 0.435503 0.649023
vt 0.433438 0.550028
vt 0.486213 0.664378
vt 0.468652 0.721927
vt 0.405887 0.684752
vt 0.399424 0.637937
vt 0.457906 0.794487
vt 0.443620 0.740230
vt 0.513586 0.581349
vt 0.534408 0.619809
vt 0.518429 0.593052
vt 0.481874 0.729399
vt 0.467696 0.782065
vt 0.431698 0.735340
vt 0.428820 0.801608
vt 0.424743 0.787999
vt 0.429024 0.825057
vt 0.431882 0.845762
vt 0.429674 0.845261
vt 0.441085 0.844183
vt 0.433738 0.849846
vt 0.419861 0.840950
vt 0.425278 0.834676
vt 0.445216 0.817010
vt 0.452468 0.809969
vt 0.461064 0.821348
vt 0.850709 0.594697
vt 0.851702 0.591364
vt 0.854194 0.584550
vt 0.851454 0.587740
vt 0.430940 0.817664
vt 0.860252 0.366340
vt 0.862474 0.394568
vt 0.856877 0.398247
vt 0.456076 0.832164
vt 0.848163 0.390261
vt 0.852650 0.367738
vt 0.448642 0.792218
vt 0.430855 0.813900
vt 0.418800 0.823279
vt 0.418552 0.812507
vt 0.407808 0.828116
vt 0.415961 0.843144
vt 0.415260 0.838903
vt 0.409786 0.839232
vt 0.413600 0.838585
vt 0.872317 0.367904
vt 0.868846 0.397093
vt 0.877219 0.386403
vt 0.471479 0.814975
vt 0.527189 0.600080
vt 0.360002 0.625819
vt 0.495968 0.688357
vt 0.411220 0.729049
vt 0.424034 0.846436
vt 0.464390 0.828764
vt 0.424754 0.849460
vt 0.860904 0.397497
vt 0.421506 0.844155
vt 0.420402 0.846742
vt 0.471181 0.825998
vt 0.415512 0.845751
vt 0.850501 0.607621
vt 0.848744 0.605319
vt 0.852278 0.602242
vt 0.478842 0.824613
s 1
usemtl Bactria_camel_mat
f 11/1/11 25/2/25 3/3/3
f 28/4/28 27/5/27 26/6/26
f 49/7/49 8/8/8 26/6/26
f 6/9/6 11/1/11 1/10/1
f 9/11/9 31/12/31 49/7/49
f 11/1/11 32/13/32 29/14/29
f 23/15/23 8/8/8 31/12/31
f 8/8/8 23/15/23 51/16/51
f 49/7/49 4/17/4 9/11/9
f 2/18/2 9/11/9 5/19/5
f 6/9/6 8/8/8 51/16/51
f 30/20/30 50/21/50 31/12/31
f 10/22/10 48/23/48 50/24/50
f 33/25/33 41/26/41 15/27/15
f 35/28/35 16/29/16 41/26/41
f 33/25/33 20/30/20 21/31/21
f 12/32/12 40/33/40 13/34/13
f 16/35/16 36/36/36 41/37/41
f 41/37/41 36/36/36 38/38/38
f 41/26/41 33/25/33 37/39/37
f 39/40/39 34/41/34 16/42/16
f 17/43/17 35/28/35 12/32/12
f 35/28/35 41/26/41 12/32/12
f 35/44/35 17/45/17 39/40/39
f 40/33/40 12/32/12 7/46/7
f 40/33/40 23/15/23 13/34/13
f 12/32/12 37/39/37 22/47/22
f 43/48/43 24/49/24 22/47/22
f 43/48/43 18/50/18 24/49/24
f 44/51/44 45/52/45 20/30/20
f 45/52/45 19/53/19 18/50/18
f 46/54/46 19/53/19 45/52/45
f 34/41/34 47/55/47 19/56/19
f 18/57/18 19/56/19 47/55/47
f 48/23/48 24/49/24 50/24/50
f 23/15/23 24/58/24 13/34/13
f 39/40/39 47/55/47 34/41/34
f 10/22/10 50/24/50 32/13/32
f 5/19/5 52/59/52 2/18/2
f 49/7/49 26/6/26 27/5/27
f 5/19/5 9/11/9 4/17/4
f 29/14/29 2/60/2 25/2/25
f 1/10/1 28/4/28 26/6/26
f 1/10/1 11/1/11 3/3/3
f 12/32/12 48/23/48 7/46/7
f 9/11/9 2/18/2 32/61/32
f 26/6/26 8/8/8 6/9/6
f 49/7/49 31/12/31 8/8/8
f 51/16/51 23/15/23 7/46/7
f 32/13/32 50/24/50 30/62/30
f 31/12/31 50/21/50 23/15/23
f 32/13/32 11/1/11 10/22/10
f 10/22/10 6/9/6 51/16/51
f 7/46/7 48/23/48 10/22/10
f 2/60/2 29/14/29 32/13/32
f 31/12/31 32/61/32 30/20/30
f 33/25/33 15/27/15 20/30/20
f 14/63/14 20/30/20 15/27/15
f 13/34/13 39/64/39 17/43/17
f 15/27/15 16/65/16 14/63/14
f 38/38/38 36/36/36 16/35/16
f 34/41/34 14/66/14 16/42/16
f 39/40/39 16/42/16 35/44/35
f 12/32/12 13/34/13 17/43/17
f 7/46/7 23/15/23 40/33/40
f 37/39/37 12/32/12 41/26/41
f 42/67/42 44/51/44 20/30/20
f 14/63/14 42/67/42 20/30/20
f 34/68/34 44/51/44 42/67/42
f 20/30/20 45/52/45 43/48/43
f 13/34/13 24/58/24 47/69/47
f 44/51/44 34/68/34 19/70/19
f 46/71/46 44/72/44 19/73/19
f 18/50/18 43/48/43 45/52/45
f 22/47/22 20/30/20 43/48/43
f 18/74/18 47/69/47 24/58/24
f 50/21/50 24/58/24 23/15/23
f 24/49/24 48/23/48 22/47/22
f 13/34/13 47/69/47 39/64/39
f 10/22/10 51/16/51 7/46/7
f 1/10/1 26/6/26 6/9/6
f 11/1/11 29/14/29 25/2/25
f 49/7/49 27/5/27 4/17/4
f 12/32/12 22/47/22 48/23/48
f 10/22/10 11/1/11 6/9/6
f 31/12/31 9/11/9 32/61/32
l 15 38
