# Blender 4.5.2 LTS
# www.blender.org
mtllib CamelBody.mtl
o camel-cuerpo
v 0.133453 1.103689 0.660738
v 0.304353 1.332166 -0.439129
v 0.290868 1.328965 0.381215
v 0.249466 1.321663 0.723310
v 0.281791 1.622782 -0.112201
v 0.206952 1.480225 -0.760636
v 0.279375 1.537101 -0.559946
v 0.235123 1.294712 -0.412545
v 0.327814 1.462133 0.114012
v 0.071616 2.049698 0.417322
v 0.071262 1.200593 -0.707060
v 0.154896 1.286388 -0.788716
v 0.013950 1.479407 -0.779399
v 0.329350 1.328103 0.611786
v -0.262637 1.193255 0.287707
v -0.287957 1.329182 -0.427622
v -0.245916 1.229943 0.715702
v -0.075991 1.151538 -0.561587
v -0.072350 1.024877 0.548499
v -0.270844 1.559797 -0.533810
v -0.212632 1.257858 -0.420742
v -0.085256 2.035050 -0.283335
v -0.186786 1.200102 0.766071
v -0.175935 1.454262 0.793504
v 0.041451 1.587173 -0.721011
v -0.113694 1.800703 0.018455
v -0.260774 1.657436 -0.219627
v -0.026283 1.483326 -0.831823
v -0.013056 1.073229 -0.832253
v -0.046732 1.526404 -0.768686
v -0.307167 1.363127 0.618891
v -0.018358 2.044790 -0.429077
v 0.030899 1.844212 0.014256
v 0.019211 2.088008 0.275545
v 0.158376 1.044746 -0.019828
v 0.039128 2.071139 -0.238662
v -0.046511 2.018705 0.471996
v 0.264461 1.215698 0.352780
v 0.126504 1.186762 -0.461612
v 0.094054 1.973401 -0.435154
v 0.094033 1.023241 0.459681
v 0.289219 1.168371 -0.029433
v 0.132539 1.054008 0.392107
v -0.006846 1.544771 0.802363
v -0.162987 1.039512 -0.015437
v 0.278093 1.321254 -0.738203
v 0.294740 1.449444 -0.415277
v 0.075446 1.160737 -0.553024
v 0.075225 1.534821 0.806746
v 0.048040 1.109059 -0.279349
v 0.155875 1.176539 0.761557
v 0.155494 1.766702 0.037258
v 0.181148 1.669938 0.544070
v 0.021685 0.981960 -0.831430
v 0.027479 1.506351 -0.825536
v 0.000177 0.961609 -0.791173
v 0.001318 1.272857 -0.761047
v 0.172847 1.450048 0.796067
v 0.207960 1.313749 0.778625
v 0.273025 1.513111 0.380700
v -0.126286 1.183444 -0.463514
v -0.295294 1.182928 -0.055040
v -0.290558 1.450344 -0.410377
v -0.300407 1.326568 -0.721432
v -0.297788 1.213390 0.334410
v -0.137525 1.105117 0.668095
v -0.253296 1.453319 -0.738692
v -0.214313 1.707633 0.118390
v -0.087175 1.038345 0.288703
v -0.109031 1.050439 0.586562
v 0.000336 1.120428 0.752907
v -0.130580 1.633361 -0.665952
v -0.085346 2.042090 0.326279
v -0.342435 1.454606 -0.050752
v -0.221069 1.608213 0.528884
v -0.068709 1.189614 -0.692109
v -0.007071 0.779039 -0.826925
v -0.157675 1.288454 -0.797970
v -0.110552 1.218076 -0.750051
v -0.288283 1.438646 0.368058
vn 0.3366 -0.8478 0.4097
vn 0.8563 -0.0456 0.5144
vn 0.9993 -0.0363 -0.0046
vn 0.8120 -0.0618 0.5804
vn 0.9131 0.4044 0.0527
vn 0.4983 0.3498 -0.7933
vn 0.9293 0.2969 -0.2195
vn 0.8717 -0.4837 -0.0790
vn 0.9898 0.1331 0.0501
vn 0.5386 0.7693 0.3435
vn 0.0288 -0.8074 -0.5893
vn 0.0654 -0.1261 -0.9899
vn 0.3580 -0.2768 -0.8918
vn 0.9157 0.3159 0.2486
vn -0.9426 -0.3307 -0.0454
vn -0.9688 -0.2038 -0.1412
vn -0.7465 -0.0284 0.6647
vn -0.0747 -0.9849 -0.1561
vn 0.0263 -0.9627 0.2694
vn -0.9133 0.3479 -0.2120
vn -0.6769 -0.6759 -0.2915
vn -0.6550 0.7507 0.0864
vn -0.6515 -0.4948 0.5751
vn -0.7272 0.3424 0.5949
vn 0.0885 0.5830 -0.8076
vn -0.6834 0.7292 -0.0360
vn -0.9179 0.3968 -0.0053
vn -0.7768 0.1211 -0.6179
vn -0.7667 -0.0186 -0.6418
vn -0.2732 0.4415 -0.8546
vn -0.9573 0.0701 0.2804
vn -0.1651 0.8400 -0.5168
vn 0.3132 0.9472 -0.0686
vn 0.1643 0.9470 -0.2759
vn 0.3844 -0.9155 -0.1185
vn 0.2927 0.9167 0.2719
vn -0.3878 0.7107 0.5870
vn 0.9105 -0.4040 0.0885
vn 0.5988 -0.7761 -0.1976
vn 0.6620 0.6190 -0.4226
vn 0.1224 -0.9924 -0.0081
vn 0.8753 -0.4771 -0.0785
vn 0.3788 -0.9226 -0.0727
vn -0.0208 0.6661 0.7456
vn -0.4049 -0.9093 -0.0958
vn 0.7686 0.1451 -0.6231
vn 1.0000 0.0081 -0.0035
vn 0.1760 -0.9647 -0.1960
vn 0.3238 0.7819 0.5328
vn 0.0660 -0.9622 -0.2641
vn 0.7903 -0.5665 0.2336
vn 0.7316 0.6425 -0.2279
vn 0.8083 0.4393 0.3921
vn 0.8471 -0.0747 -0.5262
vn 0.6343 0.4046 -0.6587
vn -0.0797 -0.1393 0.9870
vn 0.0463 -0.3258 -0.9443
vn 0.7427 0.4290 0.5141
vn 0.8265 -0.2049 0.5244
vn 0.9474 0.3079 0.0874
vn -0.4793 -0.8663 -0.1404
vn -0.8784 -0.4734 -0.0657
vn -0.9902 0.0762 -0.1167
vn -0.8401 0.1501 -0.5212
vn -0.9178 0.0463 -0.3943
vn -0.2989 -0.8010 0.5188
vn -0.6352 0.3639 -0.6812
vn -0.8766 0.4808 -0.0206
vn -0.1736 -0.9845 0.0245
vn -0.1587 -0.8684 0.4697
vn 0.0115 -0.8704 0.4922
vn -0.4363 0.5783 -0.6893
vn -0.6939 0.7199 -0.0130
vn -0.9941 0.1074 0.0147
vn -0.8887 0.3915 0.2384
vn 0.0328 -0.9271 -0.3733
vn -0.0533 -0.9973 -0.0510
vn -0.0399 -0.0445 -0.9982
vn 0.1249 -0.6059 -0.7857
vn -0.9892 0.1407 0.0421
vt 0.692398 0.466346
vt 0.642682 0.375791
vt 0.678660 0.370206
vt 0.693369 0.278800
vt 0.521984 0.462428
vt 0.541649 0.522268
vt 0.509475 0.465363
vt 0.711556 0.314058
vt 0.715338 0.273238
vt 0.728919 0.286851
vt 0.699307 0.420148
vt 0.704653 0.373666
vt 0.626128 0.472383
vt 0.599321 0.530685
vt 0.580084 0.488549
vt 0.590409 0.167795
vt 0.574033 0.142945
vt 0.614674 0.141506
vt 0.621052 0.289965
vt 0.581244 0.362344
vt 0.603981 0.463384
vt 0.638338 0.463900
vt 0.554907 0.306863
vt 0.585826 0.294001
vt 0.508520 0.449030
vt 0.556866 0.414863
vt 0.637143 0.150915
vt 0.524542 0.197878
vt 0.536874 0.216453
vt 0.486811 0.219576
vt 0.517939 0.396877
vt 0.494429 0.410631
vt 0.474747 0.370918
vt 0.572915 0.522245
vt 0.870734 0.155543
vt 0.866077 0.190681
vt 0.858553 0.183467
vt 0.874220 0.209775
vt 0.864250 0.304694
vt 0.858817 0.323903
vt 0.852997 0.302051
vt 0.590052 0.549984
vt 0.550834 0.534933
vt 0.594870 0.575573
vt 0.603803 0.600352
vt 0.595384 0.605085
vt 0.558494 0.265346
vt 0.322307 0.512846
vt 0.319155 0.433333
vt 0.359348 0.496157
vt 0.472863 0.419036
vt 0.497997 0.457593
vt 0.270721 0.479032
vt 0.462060 0.370783
vt 0.460937 0.355702
vt 0.510179 0.519998
vt 0.498285 0.552408
vt 0.487978 0.571865
vt 0.479215 0.526160
vt 0.355210 0.380776
vt 0.405470 0.465086
vt 0.431683 0.549238
vt 0.314876 0.416483
vt 0.393579 0.350187
vt 0.438540 0.409631
vt 0.454718 0.468532
vt 0.408139 0.564169
vt 0.382469 0.592347
vt 0.363818 0.616025
vt 0.338220 0.566061
vt 0.282121 0.285202
vt 0.362847 0.269841
vt 0.332973 0.332151
vt 0.530615 0.604515
vt 0.521634 0.595739
vt 0.545081 0.609190
vt 0.514175 0.581390
vt 0.888040 0.297949
vt 0.872591 0.300039
vt 0.881409 0.203672
vt 0.532703 0.539591
vt 0.295422 0.308891
vt 0.221446 0.323781
vt 0.238304 0.275923
vt 0.249152 0.305954
vt 0.475896 0.355087
vt 0.417392 0.254659
vt 0.558164 0.169527
vt 0.499403 0.300466
vt 0.445863 0.240754
vt 0.735021 0.462448
vt 0.722191 0.471111
vt 0.575594 0.573797
vt 0.880303 0.314747
vt 0.547660 0.543794
vt 0.444669 0.526724
vt 0.541379 0.587792
vt 0.539975 0.626539
vt 0.215865 0.314950
s 1
usemtl Bactria_camel_mat
f 39/1/39 42/2/42 35/3/35
f 35/3/35 42/2/42 43/4/43
f 40/5/40 25/6/25 32/7/32
f 69/8/69 41/9/41 19/10/19
f 50/11/50 35/3/35 45/12/45
f 2/13/2 46/14/46 7/15/7
f 1/16/1 71/17/71 19/18/19
f 38/19/38 42/2/42 9/20/9
f 2/13/2 47/21/47 8/22/8
f 60/23/60 3/24/3 9/20/9
f 36/25/36 5/26/5 40/5/40
f 8/22/8 47/21/47 42/2/42
f 1/16/1 19/18/19 41/27/41
f 59/28/59 4/29/4 58/30/58
f 45/12/45 35/3/35 69/8/69
f 52/31/52 33/32/33 34/33/34
f 6/34/6 25/6/25 40/5/40
f 47/21/47 7/15/7 5/26/5
f 77/35/77 54/36/54 56/37/56
f 54/36/54 77/35/77 29/38/29
f 55/39/55 25/40/25 13/41/13
f 12/42/12 13/43/13 6/34/6
f 13/41/13 54/36/54 55/39/55
f 11/44/11 48/45/48 18/46/18
f 58/30/58 4/29/4 14/47/14
f 45/48/45 15/49/15 62/50/62
f 33/32/33 36/25/36 26/51/26
f 36/25/36 22/52/22 26/51/26
f 15/49/15 45/48/45 69/53/69
f 34/33/34 73/54/73 37/55/37
f 25/6/25 72/56/72 32/7/32
f 67/57/67 64/58/64 20/59/20
f 62/50/62 80/60/80 74/61/74
f 20/59/20 64/58/64 16/62/16
f 65/63/65 80/60/80 15/49/15
f 74/61/74 16/62/16 62/50/62
f 74/61/74 75/64/75 68/65/68
f 27/66/27 26/51/26 22/52/22
f 16/62/16 21/67/21 62/50/62
f 62/50/62 21/67/21 61/68/61
f 20/59/20 27/66/27 22/52/22
f 18/69/18 50/70/50 61/68/61
f 23/71/23 24/72/24 31/73/31
f 37/55/37 73/54/73 24/72/24
f 76/74/76 79/75/79 11/76/11
f 78/77/78 64/58/64 67/57/67
f 13/78/13 28/79/28 56/80/56
f 30/81/30 67/57/67 72/56/72
f 31/73/31 17/82/17 23/71/23
f 70/83/70 71/84/71 66/85/66
f 17/82/17 31/73/31 65/63/65
f 75/64/75 31/73/31 24/72/24
f 43/4/43 42/2/42 38/19/38
f 10/86/10 37/55/37 44/87/44
f 5/26/5 7/15/7 40/5/40
f 1/16/1 59/28/59 51/88/51
f 69/8/69 43/4/43 41/9/41
f 69/8/69 35/3/35 43/4/43
f 5/26/5 36/25/36 33/32/33
f 51/88/51 71/17/71 1/16/1
f 3/24/3 38/19/38 9/20/9
f 10/86/10 52/31/52 34/33/34
f 53/89/53 10/86/10 44/87/44
f 7/15/7 46/14/46 6/34/6
f 2/13/2 7/15/7 47/21/47
f 6/34/6 40/5/40 7/15/7
f 52/31/52 10/86/10 9/20/9
f 50/11/50 39/1/39 35/3/35
f 39/1/39 8/22/8 42/2/42
f 36/25/36 40/5/40 32/7/32
f 44/87/44 49/90/49 53/89/53
f 50/11/50 18/91/18 48/92/48
f 50/11/50 48/92/48 39/1/39
f 59/28/59 1/16/1 4/29/4
f 10/86/10 53/89/53 9/20/9
f 60/23/60 9/20/9 53/89/53
f 52/31/52 9/20/9 5/26/5
f 5/26/5 33/32/33 52/31/52
f 9/20/9 42/2/42 47/21/47
f 5/26/5 9/20/9 47/21/47
f 46/14/46 12/42/12 6/34/6
f 12/42/12 57/93/57 13/43/13
f 55/39/55 54/36/54 29/38/29
f 13/41/13 56/37/56 54/36/54
f 55/39/55 29/38/29 28/79/28
f 55/39/55 30/94/30 25/40/25
f 57/93/57 12/42/12 11/44/11
f 13/43/13 25/6/25 6/34/6
f 13/43/13 57/93/57 30/95/30
f 49/90/49 58/30/58 53/89/53
f 3/24/3 60/23/60 14/47/14
f 60/23/60 53/89/53 14/47/14
f 53/89/53 58/30/58 14/47/14
f 45/48/45 62/50/62 61/68/61
f 20/59/20 32/7/32 72/56/72
f 17/82/17 66/85/66 23/71/23
f 50/70/50 45/48/45 61/68/61
f 66/85/66 71/84/71 23/71/23
f 62/50/62 15/49/15 80/60/80
f 68/65/68 27/66/27 74/61/74
f 74/61/74 80/60/80 75/64/75
f 74/61/74 63/96/63 16/62/16
f 72/56/72 67/57/67 20/59/20
f 63/96/63 20/59/20 16/62/16
f 36/25/36 32/7/32 22/52/22
f 37/55/37 24/72/24 44/87/44
f 32/7/32 20/59/20 22/52/22
f 27/66/27 63/96/63 74/61/74
f 27/66/27 20/59/20 63/96/63
f 68/65/68 75/64/75 73/54/73
f 68/65/68 73/54/73 26/51/26
f 73/54/73 34/33/34 26/51/26
f 26/51/26 34/33/34 33/32/33
f 26/51/26 27/66/27 68/65/68
f 24/72/24 73/54/73 75/64/75
f 10/86/10 34/33/34 37/55/37
f 30/81/30 57/97/57 78/77/78
f 77/35/77 56/80/56 29/38/29
f 56/80/56 28/79/28 29/38/29
f 55/39/55 28/79/28 30/94/30
f 72/56/72 25/6/25 30/81/30
f 30/81/30 78/77/78 67/57/67
f 11/76/11 79/75/79 57/97/57
f 79/75/79 78/77/78 57/97/57
f 28/79/28 13/78/13 30/94/30
f 18/98/18 76/74/76 11/76/11
f 65/63/65 31/73/31 80/60/80
f 31/73/31 75/64/75 80/60/80
f 70/83/70 19/99/19 71/84/71
